<svg width="179" height="61" viewBox="0 0 179 61" fill="none" xmlns="http://www.w3.org/2000/svg">
<path d="M22 61C16.5882 61 12 59.5841 8.23529 56.7524C4.54902 53.9207 2.11764 50.1451 0.941172 45.4255C0.549015 43.695 0.274509 41.7679 0.117647 39.6441C0.039215 37.4417 0 34.3346 0 30.323C0 26.626 0.039215 23.6763 0.117647 21.4739C0.274509 19.2714 0.549015 17.305 0.941172 15.5745C2.03921 10.8549 4.47058 7.0793 8.23529 4.24758C12 1.41586 16.5882 0 22 0C27.4118 0 32.0392 1.45519 35.8823 4.36557C39.7255 7.19729 42.1568 10.9336 43.1765 15.5745C43.7255 17.9342 44 21.7099 44 26.9014V30.441V34.2166C44 39.3295 43.7255 43.0658 43.1765 45.4255C42.0784 50.0664 39.6078 53.842 35.7647 56.7524C32 59.5841 27.4118 61 22 61Z" fill="url(#paint0_linear_91_3328)"/>
<path d="M71.27 41L64.7 25.79H69.47L73.82 36.83H72.83L77.33 25.79H81.8L75.17 41H71.27ZM83.6834 41V19.85H87.1634L98.6534 34.46H97.8434V19.85H102.193V41H98.7134L87.2534 26.39H88.0334V41H83.6834ZM113.376 41.33C111.756 41.33 110.346 41.01 109.146 40.37C107.966 39.71 107.046 38.79 106.386 37.61C105.746 36.43 105.426 35.02 105.426 33.38C105.426 31.76 105.746 30.36 106.386 29.18C107.046 28 107.966 27.09 109.146 26.45C110.346 25.81 111.756 25.49 113.376 25.49C114.996 25.49 116.406 25.81 117.606 26.45C118.806 27.09 119.726 28 120.366 29.18C121.026 30.36 121.356 31.76 121.356 33.38C121.356 35.02 121.026 36.43 120.366 37.61C119.726 38.79 118.806 39.71 117.606 40.37C116.406 41.01 114.996 41.33 113.376 41.33ZM113.376 37.91C114.416 37.91 115.236 37.54 115.836 36.8C116.456 36.06 116.766 34.92 116.766 33.38C116.766 31.84 116.456 30.71 115.836 29.99C115.236 29.27 114.416 28.91 113.376 28.91C112.336 28.91 111.506 29.27 110.886 29.99C110.286 30.71 109.986 31.84 109.986 33.38C109.986 34.92 110.286 36.06 110.886 36.8C111.506 37.54 112.336 37.91 113.376 37.91ZM124.252 41V29.81C124.252 29.15 124.232 28.48 124.192 27.8C124.172 27.12 124.122 26.45 124.042 25.79H128.392L128.902 30.23H128.212C128.412 29.15 128.732 28.26 129.172 27.56C129.632 26.86 130.192 26.34 130.852 26C131.532 25.66 132.302 25.49 133.162 25.49C133.542 25.49 133.842 25.51 134.062 25.55C134.282 25.57 134.502 25.62 134.722 25.7L134.692 29.69C134.272 29.51 133.912 29.4 133.612 29.36C133.332 29.3 132.972 29.27 132.532 29.27C131.692 29.27 130.992 29.43 130.432 29.75C129.892 30.07 129.482 30.54 129.202 31.16C128.942 31.78 128.812 32.53 128.812 33.41V41H124.252ZM136.616 41V29.75C136.616 29.11 136.596 28.46 136.556 27.8C136.516 27.12 136.456 26.45 136.376 25.79H140.726L141.056 28.61H140.696C141.136 27.65 141.786 26.89 142.646 26.33C143.506 25.77 144.526 25.49 145.706 25.49C146.866 25.49 147.836 25.77 148.616 26.33C149.416 26.87 149.986 27.72 150.326 28.88H149.846C150.286 27.84 150.986 27.02 151.946 26.42C152.906 25.8 153.996 25.49 155.216 25.49C156.936 25.49 158.216 26 159.056 27.02C159.896 28.04 160.316 29.64 160.316 31.82V41H155.786V31.97C155.786 30.91 155.616 30.15 155.276 29.69C154.936 29.23 154.386 29 153.626 29C152.726 29 152.016 29.32 151.496 29.96C150.976 30.6 150.716 31.48 150.716 32.6V41H146.186V31.97C146.186 30.91 146.016 30.15 145.676 29.69C145.336 29.23 144.786 29 144.026 29C143.126 29 142.416 29.32 141.896 29.96C141.396 30.6 141.146 31.48 141.146 32.6V41H136.616ZM171.6 41.33C168.96 41.33 166.9 40.62 165.42 39.2C163.94 37.78 163.2 35.85 163.2 33.41C163.2 31.83 163.51 30.45 164.13 29.27C164.77 28.09 165.65 27.17 166.77 26.51C167.91 25.83 169.24 25.49 170.76 25.49C172.26 25.49 173.51 25.81 174.51 26.45C175.53 27.09 176.29 27.99 176.79 29.15C177.31 30.29 177.57 31.62 177.57 33.14V34.19H166.92V31.94H174.27L173.76 32.36C173.76 31.1 173.5 30.15 172.98 29.51C172.48 28.85 171.75 28.52 170.79 28.52C169.73 28.52 168.91 28.91 168.33 29.69C167.77 30.47 167.49 31.59 167.49 33.05V33.53C167.49 35.01 167.85 36.11 168.57 36.83C169.31 37.55 170.37 37.91 171.75 37.91C172.57 37.91 173.34 37.81 174.06 37.61C174.8 37.39 175.5 37.05 176.16 36.59L177.42 39.59C176.66 40.15 175.78 40.58 174.78 40.88C173.8 41.18 172.74 41.33 171.6 41.33Z" fill="black"/>
<defs>
<linearGradient id="paint0_linear_91_3328" x1="55.9167" y1="-16.2736" x2="-16.7029" y2="35.6035" gradientUnits="userSpaceOnUse">
<stop offset="0.314617" stop-color="#00FFF0"/>
<stop offset="0.869792" stop-color="#FAFF00"/>
</linearGradient>
</defs>
</svg>
